<svg width="200" height="200" viewBox="0 0 200 200" fill="none" xmlns="http://www.w3.org/2000/svg">
  <!-- Wisdom Stamp / Flower Motif -->
  <g transform="translate(100,100) rotate(-15)">
    <!-- Outer Ring -->
    <circle cx="0" cy="0" r="70" stroke="#66BB6A" stroke-width="3" stroke-dasharray="10 5" fill="rgba(255,255,255,0.9)"/>
    
    <!-- Inner Flower Shape -->
    <path d="M0 -50 C 20 -20, 50 -20, 50 0 C 50 20, 20 20, 0 50 C -20 20, -50 20, -50 0 C -50 -20, -20 -20, 0 -50" fill="#C8E6C9" stroke="#43A047" stroke-width="2"/>
    
    <!-- Center Symbol (Stylized Heart/Seed) -->
    <path d="M0 10 C -15 -5, -15 -25, 0 -35 C 15 -25, 15 -5, 0 10" fill="#43A047"/>
    
    <!-- Text -->
    <text x="0" y="30" text-anchor="middle" font-family="sans-serif" font-size="12" fill="#2E7D32" font-weight="bold" letter-spacing="2">ANALYZED</text>
  </g>
  
  <!-- Decorative sparkles -->
  <path d="M160 160 L165 175 L180 180 L165 185 L160 200 L155 185 L140 180 L155 175 Z" fill="#FDD835"/>
</svg>